<svg width="24" height="24" viewBox="0 0 24 24" fill="none" xmlns="http://www.w3.org/2000/svg">
<rect width="24" height="24" fill="white" style="mix-blend-mode:multiply"/>
<path d="M12 6C11.2583 6 10.5333 6.21993 9.91661 6.63199C9.29992 7.04404 8.81928 7.62971 8.53545 8.31494C8.25162 9.00016 8.17736 9.75416 8.32205 10.4816C8.46675 11.209 8.8239 11.8772 9.34835 12.4017C9.87279 12.9261 10.541 13.2833 11.2684 13.4279C11.9958 13.5726 12.7498 13.4984 13.4351 13.2145C14.1203 12.9307 14.706 12.4501 15.118 11.8334C15.5301 11.2167 15.75 10.4917 15.75 9.75C15.75 8.75544 15.3549 7.80161 14.6516 7.09835C13.9484 6.39509 12.9946 6 12 6ZM12 12C11.555 12 11.12 11.868 10.75 11.6208C10.38 11.3736 10.0916 11.0222 9.92127 10.611C9.75097 10.1999 9.70641 9.7475 9.79323 9.31105C9.88005 8.87459 10.0943 8.47368 10.409 8.15901C10.7237 7.84434 11.1246 7.63005 11.561 7.54323C11.9975 7.45642 12.4499 7.50097 12.861 7.67127C13.2722 7.84157 13.6236 8.12996 13.8708 8.49997C14.118 8.86998 14.25 9.30499 14.25 9.75C14.2493 10.3465 14.0121 10.9184 13.5902 11.3402C13.1684 11.7621 12.5965 11.9993 12 12Z" fill="#A3A3A3"/>
<path d="M12 1.5C9.92329 1.5 7.89323 2.11581 6.16651 3.26957C4.43979 4.42332 3.09398 6.0632 2.29926 7.98182C1.50454 9.90045 1.29661 12.0116 1.70175 14.0484C2.1069 16.0852 3.10692 17.9562 4.57538 19.4246C6.04383 20.8931 7.91475 21.8931 9.95155 22.2982C11.9883 22.7034 14.0995 22.4955 16.0182 21.7007C17.9368 20.906 19.5767 19.5602 20.7304 17.8335C21.8842 16.1068 22.5 14.0767 22.5 12C22.4969 9.21619 21.3896 6.5473 19.4212 4.57884C17.4527 2.61039 14.7838 1.50314 12 1.5ZM7.5 19.7824V18.75C7.50065 18.1535 7.73792 17.5815 8.15973 17.1597C8.58155 16.7379 9.15346 16.5007 9.75 16.5H14.25C14.8465 16.5007 15.4184 16.7379 15.8403 17.1597C16.2621 17.5815 16.4993 18.1535 16.5 18.75V19.7824C15.1344 20.5798 13.5814 21 12 21C10.4186 21 8.86562 20.5798 7.5 19.7824ZM17.9944 18.6944C17.9795 17.7105 17.5786 16.772 16.8782 16.0809C16.1778 15.3899 15.2339 15.0017 14.25 15H9.75C8.76607 15.0017 7.82219 15.3899 7.12179 16.0809C6.42138 16.772 6.02053 17.7105 6.00562 18.6944C4.64554 17.4799 3.68642 15.881 3.25525 14.1093C2.82408 12.3377 2.9412 10.4769 3.5911 8.77324C4.241 7.06963 5.39304 5.6036 6.89465 4.56927C8.39626 3.53495 10.1766 2.98112 12 2.98112C13.8234 2.98112 15.6037 3.53495 17.1053 4.56927C18.607 5.6036 19.759 7.06963 20.4089 8.77324C21.0588 10.4769 21.1759 12.3377 20.7447 14.1093C20.3136 15.881 19.3545 17.4799 17.9944 18.6944Z" fill="#A3A3A3"/>
</svg>
