<svg width="74" height="60" viewBox="0 0 74 60" fill="none" xmlns="http://www.w3.org/2000/svg">
<path d="M47.1087 49.9899C45.0417 49.9936 42.9944 49.5846 41.0847 48.7863C39.1749 47.9879 37.4406 46.8161 35.9815 45.3383C35.9556 45.3118 35.9362 45.2796 35.9247 45.2443C35.9131 45.209 35.9098 45.1715 35.9149 45.1346C35.92 45.0978 35.9334 45.0626 35.9541 45.0319C35.9748 45.0011 36.0023 44.9756 36.0343 44.9572C37.7901 43.929 39.4045 42.6725 40.8359 41.2197C45.3731 36.6395 47.6418 30.9372 47.6418 24.1126C47.6418 17.1992 45.3731 11.4517 40.8359 6.87027C36.2986 2.28882 30.6041 -0.00126986 23.7523 5.28253e-07C16.9911 5.28253e-07 11.3421 2.29009 6.80525 6.87027C2.26842 11.4505 0 17.1979 0 24.1126C0 30.938 2.26842 36.6402 6.80525 41.2191C11.3421 45.798 16.9911 48.0881 23.7523 48.0893C24.1185 48.0893 24.4816 48.0817 24.8416 48.0684C24.8805 48.0671 24.9192 48.0755 24.9541 48.0929C24.989 48.1103 25.0191 48.1361 25.0417 48.1681C29.8093 54.8504 37.9096 59.251 47.1087 59.251C58.8068 59.251 68.734 52.1368 72.2807 42.2621C72.2924 42.2288 72.2969 42.1934 72.2938 42.1582C72.2907 42.123 72.2801 42.0889 72.2628 42.0583C72.2455 42.0276 72.2218 42.001 72.1934 41.9804C72.165 41.9598 72.1326 41.9456 72.0982 41.9388L61.9357 39.9442C61.881 39.9336 61.8244 39.9426 61.7755 39.9696C61.7267 39.9966 61.6888 40.04 61.6682 40.0922C60.4965 43.0198 58.484 45.5267 55.8894 47.2905C53.2949 49.0543 50.2369 49.9944 47.1087 49.9899ZM11.2292 24.1126C11.2292 20.3129 12.4207 17.1645 14.8036 14.6673C17.1866 12.1701 20.1921 10.9228 23.8203 10.9254C27.5407 10.9254 30.5697 12.1733 32.9073 14.6692C35.245 17.1651 36.4132 20.3135 36.4119 24.1145C36.4119 27.8715 35.2437 30.9973 32.9073 33.4919C30.571 35.9866 27.5419 37.2358 23.8203 37.2396C20.1913 37.2396 17.1858 35.98 14.8036 33.4608C12.4215 30.9416 11.2301 27.8256 11.2292 24.1126Z" fill="#006AFF"/>
<path d="M63.8865 28.3202C63.8348 28.3205 63.7844 28.304 63.7428 28.2731C63.7011 28.2423 63.6703 28.1988 63.655 28.1489C63.6397 28.0991 63.6407 28.0456 63.6578 27.9964C63.6749 27.9472 63.7072 27.9048 63.75 27.8755L67.4572 25.3094C69.6115 23.8598 71.1304 22.3824 72.0139 20.877C72.8975 19.3716 73.3392 17.7133 73.3392 15.9021C73.3392 13.142 72.3934 10.8701 70.5017 9.08647C68.61 7.30285 65.8554 6.41103 62.2378 6.41103C58.6755 6.41103 55.8797 7.35197 53.8504 9.23384C51.8635 11.0746 50.8092 13.5758 50.6876 16.7374C50.6858 16.7959 50.7046 16.8532 50.7407 16.8992C50.7767 16.9451 50.8277 16.9766 50.8846 16.9883L57.6067 18.314C57.6413 18.3205 57.6769 18.3194 57.711 18.3106C57.7451 18.3019 57.7769 18.2857 57.8042 18.2633C57.8314 18.2408 57.8535 18.2127 57.8689 18.1807C57.8842 18.1488 57.8925 18.1138 57.8931 18.0783C57.9787 15.1788 59.3849 13.7289 62.1119 13.7285C63.0768 13.7285 63.8293 14.0071 64.3692 14.5644C64.9091 15.1217 65.1785 15.8047 65.1772 16.6135C65.1772 18.3137 64.0864 19.9722 61.9049 21.589L51.7285 29.2507C51.6983 29.2734 51.6739 29.3028 51.6571 29.3366C51.6402 29.3705 51.6315 29.4079 51.6315 29.4457V35.0177C51.6315 35.0496 51.6376 35.0813 51.6497 35.1109C51.6618 35.1404 51.6796 35.1673 51.702 35.1899C51.7243 35.2125 51.7509 35.2304 51.7802 35.2426C51.8095 35.2548 51.8409 35.261 51.8726 35.261H73.7583C73.79 35.261 73.8215 35.2548 73.8508 35.2426C73.8801 35.2304 73.9067 35.2125 73.9292 35.1899C73.9516 35.1673 73.9694 35.1405 73.9816 35.1109C73.9937 35.0814 74 35.0497 74 35.0177V28.5641C74 28.4994 73.9745 28.4374 73.9292 28.3916C73.8839 28.3459 73.8224 28.3202 73.7583 28.3202H63.8865Z" fill="#006AFF"/>
</svg>
