<svg width="24" height="24" viewBox="0 0 24 24" fill="none" xmlns="http://www.w3.org/2000/svg">
<rect width="24" height="24" fill="white" style="mix-blend-mode:multiply"/>
<path d="M23.25 18H20.25V15H18.75V18H15.75V19.5H18.75V22.5H20.25V19.5H23.25V18Z" fill="#A3A3A3"/>
<path d="M18.75 3.75H16.5V3C16.4989 2.60253 16.3404 2.22166 16.0594 1.94061C15.7783 1.65955 15.3975 1.50115 15 1.5H9C8.60253 1.50115 8.22166 1.65955 7.94061 1.94061C7.65955 2.22166 7.50115 2.60253 7.5 3V3.75H5.25C4.85253 3.75115 4.47166 3.90955 4.19061 4.19061C3.90955 4.47166 3.75115 4.85253 3.75 5.25V21C3.75115 21.3975 3.90955 21.7783 4.19061 22.0594C4.47166 22.3404 4.85253 22.4989 5.25 22.5H12.75V21H5.25V5.25H7.5V7.5H16.5V5.25H18.75V12H20.25V5.25C20.2489 4.85253 20.0904 4.47166 19.8094 4.19061C19.5283 3.90955 19.1475 3.75115 18.75 3.75ZM15 6H9V3H15V6Z" fill="#A3A3A3"/>
</svg>
